<svg xmlns="http://www.w3.org/2000/svg" viewBox="0 0 900 700"><defs><linearGradient id="b" x1="0" y1="0" x2="0" y2="1"><stop stop-color="#e9eef1"/><stop offset="1" stop-color="#bdc9d1"/></linearGradient></defs><rect width="900" height="700" fill="url(#b)"/><path d="M125 590V240l170-85v435M330 590V105l235 80v405M600 590V255l175-70v405" fill="#0b2340"/><g stroke="#c59a45" stroke-width="8" opacity=".8"><path d="M170 285h80M170 340h80M170 395h80M170 450h80M380 190h135M380 250h135M380 310h135M380 370h135M380 430h135M650 285h80M650 340h80M650 395h80M650 450h80"/></g><rect y="590" width="900" height="110" fill="#07192d"/></svg>
