<svg xmlns="http://www.w3.org/2000/svg" viewBox="0 0 900 700"><defs><linearGradient id="c" x1="0" y1="0" x2="1" y2="1"><stop stop-color="#dbe3e7"/><stop offset="1" stop-color="#9fb0bb"/></linearGradient></defs><rect width="900" height="700" fill="url(#c)"/><path d="M0 600C180 390 325 330 470 350s260 125 430-20v370H0z" fill="#0b2340"/><path d="M0 570C180 360 325 300 470 320s260 125 430-20" fill="none" stroke="#c59a45" stroke-width="32"/><path d="M0 570C180 360 325 300 470 320s260 125 430-20" fill="none" stroke="#f2f4f5" stroke-width="5" stroke-dasharray="28 24"/><g fill="#07192d"><rect x="105" y="260" width="18" height="145"/><rect x="112" y="250" width="145" height="16" transform="rotate(-12 112 250)"/><rect x="690" y="170" width="17" height="165"/><rect x="697" y="160" width="130" height="15" transform="rotate(15 697 160)"/></g></svg>
